PathFileType	4	(X/Y/Z)	C:\Users\Basilio\Documents\Thesis Gigler\squatting_fais\c3dfiles\044\SLS_front_pre3\markers_experimental.trc
DataRate	CameraRate	NumFrames	NumMarkers	Units	OrigDataRate	OrigDataStartFrame	OrigNumFrames
200.000000	200.000000	4	60	mm	200.000000	860	1376
Frame#	Time	FHD			LBHD			RBHD			C7			T10			CLAV			LSHO			LUUPA			LMUPA			LDUPA			LLEP			LMEP			LUL			LRFIN			RSHO			RUPA1			RMUPA			RDUPA			RLEP			RMEP			RUL			RUFIN			LASI			RASI			USACR			LSACR			RSACR			LTHI1			LTHI2			LTHI3			LTHI4			LLFC			LMFC			LTIB1			LTIB2			LTIB3			LTIB4			LLMAL			LMMAL			LHEE			LMT1			LMT2			LMT5			RTHI			RTHI2			RTHI3			RTHI4			RLFC			RMFC			RTIB1			RTIB2			RTIB3			RTIB4			RLMAL			RHEE			RMT1			RMT2			RMT5			LRAD			RMMAL			
		X1	Y1	Z1	X2	Y2	Z2	X3	Y3	Z3	X4	Y4	Z4	X5	Y5	Z5	X6	Y6	Z6	X7	Y7	Z7	X8	Y8	Z8	X9	Y9	Z9	X10	Y10	Z10	X11	Y11	Z11	X12	Y12	Z12	X13	Y13	Z13	X14	Y14	Z14	X15	Y15	Z15	X16	Y16	Z16	X17	Y17	Z17	X18	Y18	Z18	X19	Y19	Z19	X20	Y20	Z20	X21	Y21	Z21	X22	Y22	Z22	X23	Y23	Z23	X24	Y24	Z24	X25	Y25	Z25	X26	Y26	Z26	X27	Y27	Z27	X28	Y28	Z28	X29	Y29	Z29	X30	Y30	Z30	X31	Y31	Z31	X32	Y32	Z32	X33	Y33	Z33	X34	Y34	Z34	X35	Y35	Z35	X36	Y36	Z36	X37	Y37	Z37	X38	Y38	Z38	X39	Y39	Z39	X40	Y40	Z40	X41	Y41	Z41	X42	Y42	Z42	X43	Y43	Z43	X44	Y44	Z44	X45	Y45	Z45	X46	Y46	Z46	X47	Y47	Z47	X48	Y48	Z48	X49	Y49	Z49	X50	Y50	Z50	X51	Y51	Z51	X52	Y52	Z52	X53	Y53	Z53	X54	Y54	Z54	X55	Y55	Z55	X56	Y56	Z56	X57	Y57	Z57	X58	Y58	Z58	X59	Y59	Z59	X60	Y60	Z60	

861	4.3	-202.5988769531251	1730.585083007813	-1040.0869140625	-337.9231872558594	1693.006591796875	-1116.441772460938	-377.4557495117188	1676.751831054688	-956.2695312500002	-399.258270263672	1514.195678710938	-1045.412841796875	-461.0446166992189	1224.932373046875	-1016.317687988281	-265.1332092285157	1460.9619140625	-1043.271850585938	-305.6338806152344	1519.838256835938	-1189.683959960938	-145.6788177490235	1488.716552734375	-1293.484130859375	-116.0266265869141	1500.36669921875	-1254.214233398438	-76.28566741943361	1484.634033203125	-1298.056518554688	-17.33381843566895	1482.211791992188	-1288.207885742188	-27.62499427795411	1404.534301757813	-1275.497680664063	230.7232055664063	1491.768920898438	-1156.840576171875	235.6699218750001	1506.683837890625	-1053.698974609375	-318.6053161621094	1520.862426757813	-890.963806152344	-166.6854553222657	1493.254516601563	-791.1419677734377	-136.8672332763672	1505.859619140625	-829.9805908203127	-97.16226196289065	1489.406860351563	-788.5462646484377	-35.94687271118165	1489.195190429688	-798.149841308594	-41.15987396240235	1409.601684570313	-809.3972778320315	218.3050689697266	1494.303466796875	-918.6003417968752	232.5752563476563	1481.1455078125	-1033.425170898438	-333.7078552246094	1000.132446289063	-1100.078247070313	-322.3086853027344	1004.508544921875	-888.2153930664065	-490.1700439453126	1071.0546875	-985.8646240234377	-502.2334289550782	1037.33837890625	-1008.982788085938	-497.1508178710939	1044.345092773438	-953.230407714844	-363.7066955566407	766.8607788085939	-1166.600219726563	-300.2623291015626	710.8732299804689	-1171.361572265625	-257.8649902343751	731.9794311523439	-1167.31787109375	-300.1701354980469	652.3770141601564	-1153.22412109375	-226.9165649414063	517.3898315429689	-1137.008178710938	-211.1253814697266	521.5745239257814	-1016.522155761719	-223.2343902587891	349.8141174316407	-1042.308227539063	-262.1257629394532	301.5181579589844	-1104.56494140625	-229.8039093017579	300.2636413574219	-1069.869750976563	-261.8331909179688	229.7607879638672	-1028.868041992188	-339.5348510742188	124.8819427490235	-1061.037231445313	-316.3519592285157	139.1705017089844	-977.971130371094	-407.2752685546876	111.56884765625	-1008.612060546875	-201.9632568359376	62.50509262084962	-985.7593383789065	-200.5909881591797	62.89406585693361	-1033.127807617188	-238.0116424560547	49.4159278869629	-1078.668823242188	-273.5085754394532	767.7458496093751	-797.8530883789065	-207.2445983886719	753.1196289062501	-804.790222167969	-184.5266876220703	775.327575683594	-817.1013793945315	-177.5328979492188	675.2197875976564	-818.284362792969	-124.3874893188477	586.5942382812501	-826.846862792969	-141.2721862792969	571.7455444335939	-944.7071533203127	-61.820125579834	468.336395263672	-854.0006103515627	-117.7058410644532	390.5247192382814	-798.593200683594	-77.55149078369142	388.4867553710939	-820.1992797851565	-63.67702865600587	338.5354003906251	-844.8433837890627	-107.5560073852539	180.0455627441407	-816.6365356445315	-156.9672546386719	121.3297424316407	-853.2650146484377	47.90029907226563	160.212646484375	-890.8634033203127	55.91575241088869	165.552001953125	-855.7998046875002	28.66648101806641	143.3252868652344	-798.5432128906252	216.6847381591797	1440.513427734375	-1108.603881835938	-95.18506622314455	182.8048248291016	-901.1312255859377	
862	4.305	-202.6476287841797	1731.948852539063	-1040.237426757813	-335.5542297363282	1695.807739257813	-1116.53125	-377.5718994140626	1678.310424804688	-956.2889404296877	-399.4644470214845	1516.237670898438	-1045.57470703125	-460.8395080566407	1225.954956054688	-1016.200378417969	-265.0694274902344	1462.490966796875	-1043.2431640625	-305.0874633789063	1521.328247070313	-1189.664794921875	-145.8921051025391	1489.984497070313	-1293.470458984375	-116.1521148681641	1501.543212890625	-1254.260498046875	-76.32934570312501	1486.101318359375	-1298.085205078125	-17.15899658203125	1483.531005859375	-1288.698974609375	-27.86853408813477	1405.974975585938	-1275.213256835938	230.7387084960938	1492.749145507813	-1156.861572265625	235.320541381836	1507.101440429688	-1053.609497070313	-318.6715393066407	1522.33935546875	-890.8565063476565	-166.6828765869141	1494.840087890625	-790.5029907226565	-136.7826843261719	1507.352661132813	-830.081970214844	-96.90118408203128	1490.961059570313	-788.442077636719	-35.75444030761719	1491.7421875	-798.7194824218752	-41.19777297973634	1410.99365234375	-809.2183837890627	218.3061523437501	1495.6611328125	-918.7540283203127	232.9007263183594	1482.330078125	-1033.573608398438	-333.2313842773438	1001.529663085938	-1100.072387695313	-321.8941955566407	1005.951965332031	-888.2368164062502	-490.0222167968751	1072.314086914063	-985.9426269531252	-501.8687438964845	1038.611450195313	-1009.033203125	-496.6954345703126	1045.904296875	-953.359069824219	-364.1978759765626	768.3952636718752	-1166.411987304688	-301.1340942382813	711.6666870117189	-1171.294311523438	-258.5346069335938	732.5822753906251	-1167.309936523438	-301.3512268066407	653.3300781250001	-1152.974487304688	-228.3527374267579	517.9428710937501	-1136.877563476563	-212.6024169921876	522.1620483398439	-1016.399108886719	-224.0935516357422	350.4146118164063	-1041.97216796875	-263.2659606933594	301.8560791015626	-1104.603637695313	-230.5847625732422	300.7438049316407	-1070.020263671875	-262.4147949218751	230.1255798339844	-1028.865966796875	-339.5860595703126	124.8554458618164	-1061.098876953125	-316.4606628417969	139.2278594970703	-978.0505981445315	-407.1574096679689	111.1662750244141	-1008.266479492188	-202.1565856933594	62.53857040405275	-985.7630615234377	-200.6467895507813	62.97167968750001	-1033.101196289063	-237.9750366210938	49.33639144897462	-1078.691650390625	-273.9649963378907	768.4791259765627	-797.703063964844	-207.6935119628907	753.4832153320314	-804.992614746094	-185.0940856933594	775.8441162109377	-816.8697509765627	-178.3279113769532	675.7119140625001	-818.3007812500002	-125.7289733886719	586.6685180664064	-826.5711059570315	-143.172348022461	571.2632446289064	-944.6030883789065	-63.82164001464845	468.1847534179689	-853.9091796875002	-119.8984832763672	390.2693481445314	-797.6671142578127	-80.23286437988283	388.3017578125001	-819.5215454101565	-66.43389129638673	338.0697326660157	-844.4551391601565	-111.2936935424805	180.0789337158203	-815.4765625000002	-161.1460266113282	121.7121200561524	-852.0141601562502	44.24231719970704	158.3436889648438	-890.388366699219	52.30311965942384	163.8104553222657	-854.703552246094	24.62822914123536	142.3793182373047	-798.0946044921877	216.5796966552735	1441.832885742188	-1108.607299804688	-99.14965820312503	182.6269836425782	-900.1584472656252	
863	4.31	-202.9651489257813	1733.629516601563	-1040.164916992188	-335.3792724609376	1697.404907226563	-1116.588256835938	-377.6396789550782	1679.64404296875	-956.2534179687502	-399.2944335937501	1517.1337890625	-1045.348876953125	-460.7162475585939	1227.51025390625	-1016.317749023438	-265.1873168945313	1464.125732421875	-1043.317626953125	-305.5434875488282	1522.871704101563	-1189.7763671875	-145.8219909667969	1491.431274414063	-1293.555908203125	-116.1810073852539	1503.103271484375	-1254.297485351563	-76.41079711914064	1487.309936523438	-1298.14501953125	-17.18647384643555	1485.724609375	-1289.707153320313	-27.78086280822755	1407.170166015625	-1275.469482421875	230.8312988281251	1493.707763671875	-1156.920043945313	235.5266876220704	1508.781860351563	-1053.8076171875	-318.4985351562501	1523.678344726563	-890.8941650390627	-166.7771301269532	1496.371948242188	-791.4841308593752	-136.7012176513672	1508.896362304688	-830.0302734375002	-97.22515869140628	1492.446411132813	-788.7871093750002	-36.01060485839844	1492.223999023438	-798.6384277343752	-41.22337341308594	1412.299072265625	-809.372497558594	218.3009033203126	1496.902587890625	-918.7370605468752	232.6334075927735	1483.611206054688	-1033.605834960938	-333.0906372070313	1002.805725097656	-1100.089965820313	-321.7101745605469	1007.376159667969	-888.2904052734377	-489.6329650878907	1074.010009765625	-985.9753417968752	-501.4899291992189	1040.370483398438	-1008.9873046875	-496.3398437500001	1047.347778320313	-953.3297119140627	-364.8199768066407	769.2978515625002	-1166.35107421875	-301.9583129882813	712.5214843750001	-1171.293090820313	-259.1693725585938	733.2662353515626	-1167.286010742188	-302.4178771972657	654.0469360351564	-1152.863647460938	-229.3374023437501	518.1062622070314	-1136.882446289063	-213.9494171142579	522.6793823242189	-1016.301574707031	-224.9839630126954	350.8074645996094	-1042.018310546875	-263.5724792480469	302.6803588867188	-1104.5673828125	-231.3645935058594	300.9462585449219	-1070.138427734375	-262.7996520996094	230.5368347167969	-1028.928833007813	-339.6528015136719	124.9151229858399	-1061.094360351563	-316.5522155761719	139.2240295410157	-978.1280517578127	-407.2224426269532	111.4968338012696	-1008.641235351563	-202.5740661621094	62.64499664306642	-986.5510253906252	-200.8576049804688	63.06428909301759	-1033.502197265625	-237.9159851074219	49.29173278808595	-1078.779663085938	-274.3364257812501	769.2768554687502	-797.7504882812502	-208.3203582763672	753.8390502929689	-805.0960083007815	-185.6592559814453	776.236755371094	-816.9921875000002	-179.2227172851563	675.8190917968751	-818.163269042969	-127.4707489013672	586.6119995117189	-826.340026855469	-144.7752227783203	571.5068359375001	-944.3886718750002	-66.11019134521486	467.6564941406251	-853.615173339844	-122.5358123779297	390.7218627929689	-797.4570312500002	-82.85168457031251	388.1441040039064	-819.406433105469	-69.35390472412111	337.7958984375001	-843.8802490234377	-114.931510925293	180.0999450683594	-814.9356079101565	-165.543212890625	122.4265441894532	-851.0320434570315	39.87406921386719	157.0270690917969	-889.7647094726565	48.15727615356447	162.5072479248047	-854.9329223632815	20.68679237365723	141.1124114990235	-797.5474243164065	216.5125732421876	1443.173461914063	-1108.577270507813	-102.734001159668	182.3405456542969	-899.370544433594	
864	4.315	-202.9073028564454	1735.437622070313	-1040.242065429688	-335.7162780761719	1698.77197265625	-1116.5732421875	-377.8898925781251	1681.337646484375	-956.2554321289065	-399.2730407714845	1518.727905273438	-1045.381469726563	-460.5221557617189	1228.894653320313	-1016.3115234375	-265.0061035156251	1465.643798828125	-1043.338745117188	-305.2294006347657	1524.283447265625	-1189.76318359375	-145.9747314453125	1492.659545898438	-1293.542846679688	-116.3010559082032	1504.265258789063	-1254.356079101563	-76.46617889404298	1488.523193359375	-1298.147216796875	-17.07794570922852	1486.379028320313	-1289.469848632813	-28.19473266601563	1408.380737304688	-1275.293701171875	230.586654663086	1495.293579101563	-1157.200805664063	235.4519653320313	1510.211547851563	-1053.930908203125	-318.6743469238282	1525.302001953125	-890.858825683594	-166.6501159667969	1497.436401367188	-791.1287841796877	-136.888412475586	1510.07666015625	-829.8218994140627	-97.08109283447268	1493.681030273438	-788.6112060546877	-35.89566040039063	1493.606079101563	-798.6165161132815	-41.10371398925782	1413.760009765625	-809.2695312500002	218.1968994140626	1498.290161132813	-918.8151855468752	232.4595489501954	1484.903076171875	-1033.707275390625	-332.5910034179688	1004.38525390625	-1100.161865234375	-321.4598693847657	1008.814514160156	-888.2427978515627	-489.5003051757814	1075.50732421875	-985.8955078125002	-501.0969543457032	1041.623046875	-1009.019104003906	-495.9925231933595	1048.884033203125	-953.3236083984377	-365.2730102539063	770.2403564453127	-1166.256103515625	-302.7825317382813	713.2658691406251	-1171.213989257813	-259.9432373046876	733.9069824218751	-1167.108154296875	-303.3356628417969	654.8078002929689	-1152.796752929688	-231.0022735595704	518.5996093750001	-1136.749267578125	-215.5321807861329	523.1632690429689	-1016.223937988281	-225.9522399902344	351.3525085449219	-1042.224731445313	-265.0056762695313	302.5857238769532	-1104.634887695313	-232.2576446533204	301.3065490722657	-1070.134033203125	-263.1637268066407	230.8286590576172	-1029.111450195313	-339.6584167480469	124.9022979736328	-1061.026977539063	-316.6513061523438	139.2700347900391	-978.2141723632815	-407.1500854492189	111.1702880859375	-1008.300354003906	-203.4404449462891	62.71156311035158	-986.0430908203127	-201.1420898437501	63.103084564209	-1033.09423828125	-237.8890533447266	49.15829086303712	-1078.784545898438	-274.8123779296876	770.2191162109377	-797.858093261719	-209.1729278564454	754.4589843750001	-805.0081787109377	-186.2338562011719	776.6277465820315	-816.999206542969	-180.4659729003907	676.1741333007814	-818.1531372070315	-128.7600708007813	586.8239746093751	-826.3984985351565	-146.7806091308594	571.3988647460939	-944.0775146484377	-68.41754150390626	467.570526123047	-853.3707275390627	-125.0355834960938	390.7912597656251	-796.6592407226565	-85.36444091796876	387.9569396972657	-818.5745239257815	-72.3058319091797	337.4447631835938	-843.2037353515627	-118.453109741211	180.6167449951172	-813.5357055664065	-169.6829833984375	122.6885986328125	-849.6674804687502	35.70693969726563	155.4628295898438	-889.4224243164065	44.43172836303712	161.2669525146485	-854.0383300781252	16.55014038085938	140.02099609375	-796.8970947265627	216.3408355712891	1444.40771484375	-1108.666381835938	-106.6720733642578	182.1858520507813	-898.4584960937502	
